#!OML:ASF F:\VICON\USERDATA\INSTALL\rory3\rory3.ASF
:FULLY-SPECIFIED
:DEGREES
619
root 2.86865 15.979 4.96477 -19.832 -19.4589 8.26226
lowerback 15.9611 -8.32662 -9.63542
upperback 4.6681 -12.5151 3.05844
thorax -0.986247 -6.49859 10.4048
lowerneck -8.70801 1.72381 -10.2681
upperneck 34.5174 2.31168 5.38937
head 12.7024 0.161645 4.16166
rclavicle 1.00585e-013 -5.40694e-014
rhumerus -63.0031 -21.7624 -46.4366
rradius 34.1622
rwrist -8.78414
rhand -18.9631 23.453
rfingers 7.12502
rthumb 7.34077 -6.39967
lclavicle 1.00585e-013 -5.40694e-014
lhumerus -10.3881 11.3122 95.9389
lradius 39.3669
lwrist 5.16627
lhand -23.0943 34.0548
lfingers 7.12502
lthumb 3.35201 -295.992
rfemur -55.667 -3.16112 33.2202
rtibia 40.0728
rfoot 13.3616 -3.43828
rtoes 17.7492
lfemur -7.81374 17.0321 -37.1099
ltibia 54.7789
lfoot -24.8364 10.5894
ltoes 5.38317
620
root 2.83433 16.0342 5.05817 -19.4881 -19.303 7.97146
lowerback 15.3032 -8.72805 -9.46277
upperback 4.63956 -12.9682 3.11954
thorax -0.585167 -6.7524 10.276
lowerneck -8.90337 2.1673 -10.2416
upperneck 34.4755 2.91565 5.60495
head 12.6545 0.465355 4.31466
rclavicle 1.12711e-013 -1.43125e-014
rhumerus -63.6949 -22.4795 -44.7033
rradius 33.2855
rwrist -8.70797
rhand -17.3466 23.8223
rfingers 7.12502
rthumb 8.90087 -5.97001
lclavicle 1.12711e-013 -1.43125e-014
lhumerus -9.46067 7.10201 97.5276
lradius 39.388
lwrist 4.82894
lhand -24.1956 31.5409
lfingers 7.12502
lthumb 2.28847 -298.492
rfemur -56.139 -1.4204 34.1486
rtibia 41.4951
rfoot 13.5928 -1.26097
rtoes 14.4968
lfemur -7.39847 16.735 -36.8577
ltibia 54.2688
lfoot -24.9585 10.372
ltoes 6.63294
621
root 2.79466 16.0825 5.12925 -18.8516 -19.1123 6.9263
lowerback 14.9 -9.23268 -8.78931
upperback 4.56721 -13.5046 3.40496
thorax -0.408254 -7.02896 10.1795
lowerneck -9.16069 2.51489 -10.3025
upperneck 34.5852 3.42836 5.73266
head 12.6957 0.69766 4.44632
rclavicle -1.11717e-013 1.74931e-014
rhumerus -64.0279 -22.4237 -44.0204
rradius 32.6107
rwrist -9.49912
rhand -17.1852 23.4772
rfingers 7.12502
rthumb 9.05663 -6.30836
lclavicle -1.11717e-013 1.74931e-014
lhumerus -8.70784 3.47591 99.0025
lradius 39.6532
lwrist 3.90029
lhand -22.9413 31.791
lfingers 7.12502
lthumb 3.49977 -298.258
rfemur -56.5071 0.315978 35.6982
rtibia 42.6532
rfoot 13.5362 1.00604
rtoes 11.4884
lfemur -7.14687 16.2876 -35.7696
ltibia 53.978
lfoot -24.9292 10.099
ltoes 7.41353
622
root 2.75304 16.1218 5.19566 -18.1911 -18.4689 5.8729
lowerback 15.145 -9.91966 -8.47202
upperback 4.01907 -14.3841 3.86561
thorax -0.874188 -7.42491 10.6695
lowerneck -9.01312 3.18835 -9.76418
upperneck 34.8649 4.41489 5.25471
head 12.7134 1.12744 4.28455
rclavicle -4.11484e-014 -4.77083e-015
rhumerus -64.2006 -21.4644 -43.2127
rradius 31.7299
rwrist -9.79051
rhand -17.7128 22.7947
rfingers 7.12502
rthumb 8.54753 -7.01234
lclavicle -4.11484e-014 -4.77083e-015
lhumerus -8.61878 0.190002 100.393
lradius 40.1365
lwrist 2.74565
lhand -22.2967 31.1622
lfingers 7.12502
lthumb 4.1223 -298.898
rfemur -56.8592 1.70569 37.0679
rtibia 43.481
rfoot 13.3817 2.99723
rtoes 8.81912
lfemur -6.87763 15.5351 -34.7482
ltibia 53.7671
lfoot -24.959 9.67565
ltoes 7.63142
623
root 2.71728 16.1588 5.27842 -17.7389 -17.8484 5.28766
lowerback 14.3169 -10.3667 -8.08425
upperback 4.29225 -14.8713 3.84847
thorax -0.133065 -7.72572 10.2443
lowerneck -9.61452 3.46928 -9.08677
upperneck 34.7591 4.76513 5.24614
head 12.7767 1.38076 4.22074
rclavicle 3.79679e-014 -7.4743e-014
rhumerus -64.6459 -22.9766 -41.44
rradius 30.6114
rwrist -8.56958
rhand -18.0797 22.2385
rfingers 7.12502
rthumb 8.1934 -7.58267
lclavicle 3.79679e-014 -7.4743e-014
lhumerus -7.40569 -5.15021 101.134
lradius 40.4756
lwrist 1.99221
lhand -21.7315 30.7815
lfingers 7.12502
lthumb 4.66802 -299.29
rfemur -56.9791 3.08161 37.9572
rtibia 43.991
rfoot 13.3754 4.3953
rtoes 9.52976
lfemur -6.5757 14.9845 -34.1962
ltibia 53.7231
lfoot -25.1374 9.26963
ltoes 8.1368
624
root 2.68773 16.1947 5.36817 -17.3931 -17.4324 5.28441
lowerback 13.8974 -10.8089 -8.32143
upperback 4.12261 -15.4707 3.86176
thorax 0.111469 -8.03982 10.3154
lowerneck -9.91527 3.94161 -8.55777
upperneck 34.8324 5.44179 5.03003
head 12.8347 1.71877 4.1381
rclavicle 5.06901e-014 -9.54166e-015
rhumerus -64.9452 -23.5926 -39.7234
rradius 29.6603
rwrist -7.63123
rhand -18.2819 21.9282
rfingers 7.12502
rthumb 7.99823 -7.90048
lclavicle 5.06901e-014 -9.54166e-015
lhumerus -6.57665 -9.93287 101.669
lradius 40.911
lwrist 1.40163
lhand -21.5987 30.1153
lfingers 7.12502
lthumb 4.79625 -299.959
rfemur -57.0658 4.58158 38.3285
rtibia 44.3642
rfoot 13.7482 5.4711
rtoes 11.4972
lfemur -6.34041 14.7306 -34.3001
ltibia 53.5635
lfoot -25.2804 9.07959
ltoes 8.61069
625
root 2.65409 16.2119 5.41504 -16.3266 -17.0174 4.10585
lowerback 13.573 -11.2996 -7.55876
upperback 3.82151 -15.9955 4.27186
thorax -0.00458475 -8.28293 10.3392
lowerneck -10.1053 4.217 -8.53722
upperneck 34.8902 5.82723 5.1411
head 12.8595 1.90481 4.23255
rclavicle -8.52786e-014 5.08889e-014
rhumerus -65.4303 -24.0985 -38.2618
rradius 28.9398
rwrist -7.32068
rhand -18.2771 21.7443
rfingers 7.12502
rthumb 8.00293 -8.08416
lclavicle -8.52786e-014 5.08889e-014
lhumerus -5.79253 -14.3879 102.238
lradius 41.3979
lwrist 0.085881
lhand -21.4162 28.9646
lfingers 7.12502
lthumb 4.9725 -301.114
rfemur -57.6583 6.48798 39.4947
rtibia 44.7961
rfoot 13.6111 6.38135
rtoes 11.5913
lfemur -6.84069 14.2226 -33.1945
ltibia 53.4499
lfoot -25.0671 8.66095
ltoes 8.90128
626
root 2.65554 16.2631 5.49869 -16.107 -16.5951 2.40365
lowerback 13.9249 -11.8832 -5.7794
upperback 3.79863 -16.5318 4.54651
thorax -0.50999 -8.50337 9.8659
lowerneck -9.88483 4.55194 -8.61655
upperneck 34.6358 6.2398 5.37189
head 12.6488 2.12368 4.35876
rclavicle -1.2106e-013 5.08889e-014
rhumerus -65.8309 -24.1864 -37.22
rradius 28.3526
rwrist -7.86064
rhand -18.6103 21.3808
rfingers 7.12502
rthumb 7.68131 -8.45969
lclavicle -1.2106e-013 5.08889e-014
lhumerus -5.17994 -18.3442 102.886
lradius 42.0118
lwrist -1.77137
lhand -20.685 27.6972
lfingers 7.12502
lthumb 5.67849 -302.399
rfemur -57.0109 6.97002 41.6828
rtibia 45.3295
rfoot 13.0161 9.08112
rtoes 9.00343
lfemur -5.71178 13.9943 -31.253
ltibia 52.8629
lfoot -25.0696 7.97515
ltoes 9.83391
627
root 2.64394 16.2775 5.57894 -16.4815 -15.1581 4.85363
lowerback 14.0052 -12.0471 -8.48592
upperback 3.35682 -17.149 3.97189
thorax -0.293486 -8.82789 10.6724
lowerneck -9.57807 4.92749 -8.74893
upperneck 34.1564 6.66952 5.75352
head 12.3127 2.37762 4.53333
rclavicle 1.69563e-013 -3.65764e-014
rhumerus -66.059 -24.2567 -36.3138
rradius 27.8444
rwrist -8.76522
rhand -18.8943 20.8199
rfingers 7.12502
rthumb 7.40716 -9.03042
lclavicle 1.69563e-013 -3.65764e-014
lhumerus -4.33211 -21.9343 103.332
lradius 42.5465
lwrist -4.12027
lhand -19.7469 26.2959
lfingers 7.12502
lthumb 6.58412 -303.826
rfemur -57.5702 7.48209 39.4733
rtibia 46.119
rfoot 13.3049 11.2622
rtoes 6.10726
lfemur -5.19746 13.8117 -34.1382
ltibia 51.9642
lfoot -24.8793 7.74129
ltoes 10.4144
628
root 2.6169 16.2935 5.65933 -17.2678 -15.114 6.99693
lowerback 14.2684 -11.642 -10.9453
upperback 3.2934 -17.0024 3.4709
thorax 0.0209109 -8.79201 11.4081
lowerneck -10.1437 5.05433 -8.39484
upperneck 34.3074 6.85853 5.7157
head 12.4932 2.49714 4.51515
rclavicle 4.41302e-014 -1.11319e-014
rhumerus -66.6472 -24.88 -34.7732
rradius 27.4688
rwrist -9.01424
rhand -18.6036 20.367
rfingers 7.12502
rthumb 7.68777 -9.4733
lclavicle 4.41302e-014 -1.11319e-014
lhumerus -3.25675 -25.6638 103.703
lradius 42.9699
lwrist -7.18331
lhand -19.0442 25.0987
lfingers 7.12502
lthumb 7.26253 -305.046
rfemur -56.9673 8.75025 38.3252
rtibia 46.8369
rfoot 14.1745 12.8962
rtoes 5.30551
lfemur -4.22668 15.1366 -36.0217
ltibia 50.8784
lfoot -24.6637 7.39004
ltoes 10.1781
629
root 2.59535 16.3331 5.73769 -16.8884 -14.0441 6.93018
lowerback 14.1433 -12.0058 -11.1653
upperback 2.9966 -17.5126 3.55169
thorax -0.00612409 -9.03546 11.6009
lowerneck -11.1498 5.05788 -7.57652
upperneck 34.9664 6.98082 5.10416
head 13.0517 2.53946 4.24163
rclavicle -6.85807e-014 -7.95139e-015
rhumerus -67.4774 -25.3639 -32.9324
rradius 27.3746
rwrist -9.21524
rhand -17.7861 19.8029
rfingers 7.12502
rthumb 8.47675 -10.0069
lclavicle -6.85807e-014 -7.95139e-015
lhumerus -2.4027 -29.1366 104.247
lradius 43.5285
lwrist -10.3543
lhand -18.8209 24.2706
lfingers 7.12502
lthumb 7.47802 -305.882
rfemur -57.0158 9.06999 38.6156
rtibia 47.4025
rfoot 14.5542 13.8514
rtoes 5.44913
lfemur -3.61296 15.0384 -35.9184
ltibia 49.9292
lfoot -24.2918 6.58421
ltoes 10.4437
630
root 2.59161 16.3692 5.8008 -16.2792 -13.0256 6.36532
lowerback 14.121 -12.4873 -10.6182
upperback 2.68767 -18.0717 3.62497
thorax -0.322349 -9.26911 11.4535
lowerneck -11.1801 5.21184 -7.05288
upperneck 34.7061 7.15967 4.88963
head 12.9665 2.67276 4.07928
rclavicle -1.09332e-013 -1.59028e-014
rhumerus -68.2567 -25.5769 -31.8193
rradius 27.4974
rwrist -9.73965
rhand -17.0676 19.0092
rfingers 7.12502
rthumb 9.17009 -10.7714
lclavicle -1.09332e-013 -1.59028e-014
lhumerus -1.49459 -32.2296 104.351
lradius 44.1149
lwrist -13.0651
lhand -18.6166 23.2162
lfingers 7.12502
lthumb 7.67525 -306.943
rfemur -56.9838 9.01391 39.4522
rtibia 47.5479
rfoot 15.7614 14.0326
rtoes 8.02799
lfemur -3.20967 14.7756 -35.4133
ltibia 49.1284
lfoot -23.9417 5.75062
ltoes 10.8767
631
root 2.58558 16.4166 5.88394 -16.0798 -12.5229 6.02195
lowerback 13.2189 -12.6864 -9.83214
upperback 3.16143 -18.138 3.22172
thorax 0.299589 -9.34335 10.3487
lowerneck -10.1301 5.25526 -7.49889
upperneck 32.8889 6.94654 5.85098
head 11.9224 2.74493 4.34644
rclavicle -1.18476e-013 4.92986e-014
rhumerus -69.2067 -26.4616 -31.5907
rradius 27.5951
rwrist -10.1621
rhand -18.0826 18.5324
rfingers 7.12502
rthumb 8.1906 -11.2888
lclavicle -1.18476e-013 4.92986e-014
lhumerus 0.203351 -36.0938 103.489
lradius 44.6312
lwrist -15.0749
lhand -18.1507 21.7614
lfingers 7.12502
lthumb 8.12492 -308.415
rfemur -56.3527 9.22147 40.3737
rtibia 47.8649
rfoot 16.5776 14.3297
rtoes 9.14209
lfemur -2.39667 15.0371 -34.851
ltibia 48.1894
lfoot -23.6126 4.85811
ltoes 11.3674
632
root 2.57623 16.461 5.96477 -16.1065 -11.8125 6.22141
lowerback 13.3745 -12.7518 -10.3115
upperback 3.01164 -18.3076 3.31359
thorax 0.279144 -9.43128 10.7245
lowerneck -11.1902 5.17315 -6.81276
upperneck 33.143 6.91613 5.423
head 12.3049 2.75273 4.13267
rclavicle 2.66769e-013 -1.59028e-014
rhumerus -69.5026 -26.3776 -31.0342
rradius 27.6113
rwrist -10.8363
rhand -19.6049 18.0846
rfingers 7.12502
rthumb 6.72127 -11.7887
lclavicle 2.66769e-013 -1.59028e-014
lhumerus 1.52928 -38.2921 104.043
lradius 44.762
lwrist -17.4127
lhand -17.664 19.2613
lfingers 7.12502
lthumb 8.5946 -310.934
rfemur -55.5882 9.18012 40.6969
rtibia 48.1216
rfoot 16.062 15.4459
rtoes 5.76881
lfemur -1.46973 15.3044 -34.8374
ltibia 47.2874
lfoot -23.3321 3.83722
ltoes 12.0804
633
root 2.59011 16.4636 6.03488 -15.8169 -9.42472 9.29012
lowerback 13.6011 -12.97 -13.7309
upperback 2.04931 -19.1448 2.89589
thorax 0.275122 -9.82021 12.0436
lowerneck -10.8791 5.23026 -7.41965
upperneck 32.8135 7.06426 5.62318
head 12.0558 2.78963 4.2942
rclavicle 1.19867e-013 -3.18055e-014
rhumerus -69.531 -25.8404 -30.7627
rradius 27.5496
rwrist -11.6744
rhand -20.6325 17.9098
rfingers 7.12502
rthumb 5.72916 -11.9928
lclavicle 1.19867e-013 -3.18055e-014
lhumerus 2.69902 -39.9763 104.86
lradius 44.6618
lwrist -19.3957
lhand -17.4917 17.1163
lfingers 7.12502
lthumb 8.76087 -313.086
rfemur -56.4929 7.88123 37.5126
rtibia 48.5251
rfoot 16.4793 15.8159
rtoes 5.14077
lfemur -1.40456 14.6307 -38.7379
ltibia 46.4538
lfoot -22.9243 3.17044
ltoes 12.2734
